<?xml version="1.0" encoding="UTF-8" standalone="no"?>
<svg
   xmlns:dc="http://purl.org/dc/elements/1.1/"
   xmlns:cc="http://creativecommons.org/ns#"
   xmlns:rdf="http://www.w3.org/1999/02/22-rdf-syntax-ns#"
   xmlns:svg="http://www.w3.org/2000/svg"
   xmlns="http://www.w3.org/2000/svg"
   xmlns:sodipodi="http://sodipodi.sourceforge.net/DTD/sodipodi-0.dtd"
   xmlns:inkscape="http://www.inkscape.org/namespaces/inkscape"
   width="50"
   height="40"
   viewBox="0 0 13.229166 10.583334"
   version="1.1"
   id="svg8"
   inkscape:version="1.0.2 (e86c870879, 2021-01-15)"
   sodipodi:docname="icon.svg">
  <defs
     id="defs2" />
  <sodipodi:namedview
     id="base"
     pagecolor="#ffffff"
     bordercolor="#666666"
     borderopacity="1.0"
     inkscape:pageopacity="0.0"
     inkscape:pageshadow="2"
     inkscape:zoom="15.33303"
     inkscape:cx="14.772675"
     inkscape:cy="20.595498"
     inkscape:document-units="mm"
     inkscape:current-layer="layer1"
     inkscape:document-rotation="0"
     showgrid="false"
     units="px"
     inkscape:window-width="2560"
     inkscape:window-height="1380"
     inkscape:window-x="0"
     inkscape:window-y="28"
     inkscape:window-maximized="1" />
  <metadata
     id="metadata5">
    <rdf:RDF>
      <cc:Work
         rdf:about="">
        <dc:format>image/svg+xml</dc:format>
        <dc:type
           rdf:resource="http://purl.org/dc/dcmitype/StillImage" />
        <dc:title />
      </cc:Work>
    </rdf:RDF>
  </metadata>
  <g
     inkscape:label="Layer 1"
     inkscape:groupmode="layer"
     id="layer1">
    <path
       id="path855"
       style="fill:#d7dae0;fill-opacity:1;stroke:none;stroke-width:0.999999;stroke-linecap:round;stroke-linejoin:round"
       d="M 6.6145833,0.1035134 A 5.1881532,5.1881532 0 0 0 1.4264301,5.2916666 5.1881532,5.1881532 0 0 0 6.6145833,10.47982 5.1881532,5.1881532 0 0 0 11.802737,5.2916666 5.1881532,5.1881532 0 0 0 6.6145833,0.1035134 Z m -0.00844,0.8646922 a 4.3234609,4.3234609 0 0 1 0.00844,0 4.3234609,4.3234609 0 0 1 4.3234607,4.323461 4.3234609,4.3234609 0 0 1 -4.3234607,4.323461 4.3234609,4.3234609 0 0 1 -4.323461,-4.323461 4.3234609,4.3234609 0 0 1 4.3150168,-4.323461 z" />
    <path
       d="M 5.7222474,6.4269413 V 6.0812197 q 0,-0.2382676 0.04672,-0.429816 0.051389,-0.1962203 0.1495,-0.3690811 Q 6.02125,5.1047895 6.1800945,4.941273 6.3389402,4.7730834 6.5631913,4.5955513 6.7594118,4.4413774 6.8948973,4.3199086 7.0303841,4.1984388 7.1144772,4.081641 7.1985711,3.9601712 7.235947,3.8293577 7.273323,3.6985443 7.273323,3.5256832 q 0,-0.266299 -0.182204,-0.4391598 -0.1775333,-0.1728607 -0.5466137,-0.1728607 -0.3223621,0 -0.6961152,0.1354851 Q 5.4793075,3.184633 5.0821948,3.3808537 L 4.6056602,2.3483612 Q 4.8065525,2.2315632 5.040148,2.1287812 5.2784156,2.0213268 5.530699,1.9419047 5.7876542,1.8578109 6.0492813,1.8110914 q 0.261627,-0.04672 0.5139103,-0.04672 0.4765352,0 0.8596321,0.1167979 0.3830969,0.1121263 0.6493959,0.3317059 0.266299,0.21958 0.4064565,0.5325981 0.1448303,0.3130182 0.1448303,0.7148027 0,0.2943304 -0.065407,0.5279261 Q 8.4926924,4.2171264 8.3618789,4.4180187 8.2357381,4.614239 8.0395168,4.8011156 7.8479694,4.9833194 7.5910131,5.1888844 7.3947928,5.3430576 7.2686514,5.4598553 7.1471816,5.5719815 7.0771038,5.6747632 7.0070237,5.7775458 6.9789929,5.8896712 6.955634,5.9971239 6.955634,6.1466264 v 0.2803149 z m -0.154174,1.5977943 q 0,-0.21958 0.060733,-0.3690811 0.065407,-0.154174 0.1775332,-0.2476116 0.1121262,-0.093437 0.2616272,-0.1354867 0.1541739,-0.042048 0.3270337,-0.042048 0.1635171,0 0.3083464,0.042048 0.1495006,0.042048 0.2616272,0.1354867 0.1121262,0.093438 0.1775333,0.2476116 0.065407,0.1495005 0.065407,0.3690811 0,0.2102359 -0.065407,0.3597371 -0.065407,0.1495005 -0.1775333,0.2476116 -0.1121262,0.098109 -0.2616272,0.140157 -0.1448303,0.04672 -0.3083464,0.04672 -0.1728604,0 -0.3270337,-0.04672 Q 5.9184677,8.7301944 5.8063412,8.6320843 5.6942147,8.5339742 5.628808,8.3844727 5.5680739,8.2349721 5.5680734,8.0247356 Z"
       style="font-style:normal;font-variant:normal;font-weight:bold;font-stretch:normal;font-size:4.9389px;line-height:6.61458px;font-family:'Droid Sans';-inkscape-font-specification:'Droid Sans Bold';letter-spacing:0px;word-spacing:0px;fill:#d7dae0;fill-opacity:1;stroke:none;stroke-width:0.264583px;stroke-linecap:butt;stroke-linejoin:miter;stroke-opacity:1"
       id="path864" />
  </g>
</svg>
